<svg id="Capa_1" data-name="Capa 1" xmlns="http://www.w3.org/2000/svg" viewBox="0 0 385 244.331">
  <defs>
    <style>
      .cls-1 {
        fill: #fff;
      }

      .cls-2 {
        fill: #ff0;
      }
    </style>
  </defs>
  <title>CL2019</title>
  <g>
    <g>
      <path class="cls-1" d="M45.228,234.881a26.43,26.43,0,0,1-8.648,6.894,24.579,24.579,0,0,1-11.2,2.556,25.756,25.756,0,0,1-17.991-7.192,24.592,24.592,0,0,1-5.408-7.815,24.567,24.567,0,0,1,0-19.316,24.748,24.748,0,0,1,13.475-13.1,25.891,25.891,0,0,1,9.924-1.9,24.592,24.592,0,0,1,11.2,2.556,25.933,25.933,0,0,1,8.47,6.656l-6.36,6.537a16.71,16.71,0,0,0-5.675-5.081,16.047,16.047,0,0,0-13.908-.654,16.753,16.753,0,0,0-5.141,3.447,16.3,16.3,0,0,0-3.476,5.052,15.3,15.3,0,0,0,0,12.243,16.3,16.3,0,0,0,3.476,5.052,16.735,16.735,0,0,0,5.141,3.447,15.567,15.567,0,0,0,6.27,1.277,15.08,15.08,0,0,0,7.787-1.99,17.688,17.688,0,0,0,5.646-5.26Z"/>
      <path class="cls-1" d="M63.355,243.261a11.912,11.912,0,0,1-4.932,1.069,13.166,13.166,0,0,1-3.656-.5,8,8,0,0,1-3.061-1.635,7.88,7.88,0,0,1-2.08-2.941,11.114,11.114,0,0,1-.773-4.369V194.11H57.59V233.4a3.948,3.948,0,0,0,.862,2.941,2.9,2.9,0,0,0,2.051.8,5.143,5.143,0,0,0,2.852-.891Z"/>
      <path class="cls-1" d="M76.43,203.085H67.515V194.17H76.43Zm-.119,40.355H67.634V209.028h8.677Z"/>
      <path class="cls-1" d="M135.03,243.439h-8.559v-20.5a7.764,7.764,0,0,0-1.753-5.5,5.672,5.672,0,0,0-4.309-1.873,11,11,0,0,0-3.714.624,10.873,10.873,0,0,0-3.417,2.051,18.915,18.915,0,0,1,.534,4.695v20.5h-8.558v-20.5a7.769,7.769,0,0,0-1.753-5.5,5.609,5.609,0,0,0-4.249-1.873,8.171,8.171,0,0,0-3.447.684,12.161,12.161,0,0,0-3.091,2.169v25.021H84.155V209.087h8.559l.01,2.556a12.814,12.814,0,0,1,3.778-2.5,10.96,10.96,0,0,1,4.434-.95,12.255,12.255,0,0,1,5.028,1.129,12.965,12.965,0,0,1,4.434,3.268,15.992,15.992,0,0,1,11.424-4.4,15.986,15.986,0,0,1,5.087.8,10.753,10.753,0,0,1,4.195,2.555,12.72,12.72,0,0,1,2.856,4.458,17.693,17.693,0,0,1,1.071,6.508Z"/>
      <path class="cls-1" d="M169.382,243.439h-8.559V241.6a14.144,14.144,0,0,1-4.784,2.14,22.67,22.67,0,0,1-5.2.594,13.027,13.027,0,0,1-4.518-.743,10.16,10.16,0,0,1-3.506-2.14,9.563,9.563,0,0,1-2.289-3.3,10.763,10.763,0,0,1-.8-4.22A9.83,9.83,0,0,1,141,228.848a11.033,11.033,0,0,1,3.477-3.625,16.093,16.093,0,0,1,5.141-2.169,26.8,26.8,0,0,1,6.33-.713h4.932a6.186,6.186,0,0,0-1.961-4.814,8.114,8.114,0,0,0-5.647-1.783,11.3,11.3,0,0,0-3.685.654,11.16,11.16,0,0,0-3.8,2.377l-5.052-5.11a19.416,19.416,0,0,1,6.33-4.042,19.888,19.888,0,0,1,7.4-1.426,16.782,16.782,0,0,1,6.35,1.129,13.039,13.039,0,0,1,7.653,7.964,23.36,23.36,0,0,1,.915,7.132Zm-8.559-8.559v-6.359H156.9a22.589,22.589,0,0,0-3.357.238,9.459,9.459,0,0,0-2.735.8,5.081,5.081,0,0,0-1.842,1.456,3.416,3.416,0,0,0-.683,2.14,3.573,3.573,0,0,0,1.4,2.912,5.538,5.538,0,0,0,3.6,1.129,12.392,12.392,0,0,0,3.774-.594A18.1,18.1,0,0,0,160.823,234.881Z"/>
      <path class="cls-1" d="M190.479,243.261a11.912,11.912,0,0,1-4.932,1.069,13.166,13.166,0,0,1-3.656-.5,8,8,0,0,1-3.061-1.635,7.88,7.88,0,0,1-2.08-2.941,11.114,11.114,0,0,1-.773-4.369V194.11h8.737V233.4a3.948,3.948,0,0,0,.862,2.941,2.9,2.9,0,0,0,2.051.8,5.143,5.143,0,0,0,2.852-.891Z"/>
      <path class="cls-1" d="M222.514,243.439h-8.559V241.6a14.144,14.144,0,0,1-4.784,2.14,22.67,22.67,0,0,1-5.2.594,13.027,13.027,0,0,1-4.518-.743,10.16,10.16,0,0,1-3.506-2.14,9.563,9.563,0,0,1-2.289-3.3,10.763,10.763,0,0,1-.8-4.22,9.83,9.83,0,0,1,1.278-5.081,11.033,11.033,0,0,1,3.477-3.625,16.093,16.093,0,0,1,5.141-2.169,26.8,26.8,0,0,1,6.33-.713h4.932a6.186,6.186,0,0,0-1.961-4.814,8.114,8.114,0,0,0-5.647-1.783,11.3,11.3,0,0,0-3.685.654,11.16,11.16,0,0,0-3.8,2.377l-5.052-5.11a19.416,19.416,0,0,1,6.33-4.042,19.888,19.888,0,0,1,7.4-1.426,16.782,16.782,0,0,1,6.35,1.129,13.039,13.039,0,0,1,7.653,7.964,23.36,23.36,0,0,1,.915,7.132Zm-8.559-8.559v-6.359h-3.923a22.589,22.589,0,0,0-3.357.238,9.459,9.459,0,0,0-2.735.8,5.081,5.081,0,0,0-1.842,1.456,3.416,3.416,0,0,0-.683,2.14,3.573,3.573,0,0,0,1.4,2.912,5.538,5.538,0,0,0,3.6,1.129,12.392,12.392,0,0,0,3.774-.594A18.1,18.1,0,0,0,213.956,234.881Z"/>
      <path class="cls-1" d="M262.155,226.263a19.547,19.547,0,0,1-1.22,6.894,17.925,17.925,0,0,1-3.426,5.735,16.544,16.544,0,0,1-5.243,3.923,15.249,15.249,0,0,1-6.673,1.456,13.912,13.912,0,0,1-4.23-.623,11.572,11.572,0,0,1-3.694-1.991v1.783H229.11V194.11h8.618l.06,16.641a11.836,11.836,0,0,1,3.536-1.9,13.016,13.016,0,0,1,4.308-.713,14.263,14.263,0,0,1,6.122,1.4,17.592,17.592,0,0,1,5.29,3.834,18.97,18.97,0,0,1,3.714,5.736A18.181,18.181,0,0,1,262.155,226.263Zm-8.677,0a12.59,12.59,0,0,0-.715-4.338,9.932,9.932,0,0,0-2-3.358,8.659,8.659,0,0,0-3.041-2.14,9.964,9.964,0,0,0-3.908-.743,10.68,10.68,0,0,0-3.162.565,9.986,9.986,0,0,0-2.983,1.456v16.522a9.142,9.142,0,0,0,6.325,2.556,9.3,9.3,0,0,0,3.787-.773,8.664,8.664,0,0,0,3.013-2.169,10.261,10.261,0,0,0,1.969-3.328A12.157,12.157,0,0,0,253.478,226.263Z"/>
      <path class="cls-1" d="M302.985,226.263a17.842,17.842,0,0,1-1.427,7.161,17.45,17.45,0,0,1-3.923,5.705,18.675,18.675,0,0,1-5.854,3.8,18.485,18.485,0,0,1-7.161,1.4,18.263,18.263,0,0,1-7.132-1.4,18.476,18.476,0,0,1-5.825-3.834,17.783,17.783,0,0,1-5.348-12.837,17.235,17.235,0,0,1,1.456-7.043,18.558,18.558,0,0,1,3.952-5.765,18.287,18.287,0,0,1,12.9-5.259,18.466,18.466,0,0,1,7.161,1.4,18.69,18.69,0,0,1,5.854,3.8,17.379,17.379,0,0,1,3.923,5.736A17.915,17.915,0,0,1,302.985,226.263Zm-8.559,0a10.814,10.814,0,0,0-.771-4.1,10.7,10.7,0,0,0-2.1-3.329,9.652,9.652,0,0,0-3.11-2.229,9.363,9.363,0,0,0-7.584,0,9.657,9.657,0,0,0-3.111,2.229,10.968,10.968,0,0,0,0,14.858,9.641,9.641,0,0,0,3.111,2.229,9.363,9.363,0,0,0,7.584,0,9.637,9.637,0,0,0,3.11-2.229,10.667,10.667,0,0,0,2.1-3.328A10.81,10.81,0,0,0,294.426,226.263Z"/>
      <path class="cls-1" d="M333,212.653l-4.576,7.251a15.909,15.909,0,0,0-2.764-2.407,5.369,5.369,0,0,0-3.061-1.04,4.979,4.979,0,0,0-1.812.385,5.276,5.276,0,0,0-1.842,1.278,7.3,7.3,0,0,0-1.456,2.348,9.537,9.537,0,0,0-.595,3.595v19.375h-8.559V209.087h8.559v3.685a12.312,12.312,0,0,1,3.418-3.388,7.653,7.653,0,0,1,4.19-1.188,8.953,8.953,0,0,1,4.428,1.218A17.163,17.163,0,0,1,333,212.653Z"/>
      <path class="cls-1" d="M363.9,243.439h-8.559V241.6a14.144,14.144,0,0,1-4.784,2.14,22.67,22.67,0,0,1-5.2.594,13.027,13.027,0,0,1-4.518-.743,10.16,10.16,0,0,1-3.506-2.14,9.563,9.563,0,0,1-2.289-3.3,10.763,10.763,0,0,1-.8-4.22,9.83,9.83,0,0,1,1.278-5.081A11.033,11.033,0,0,1,339,225.223a16.093,16.093,0,0,1,5.141-2.169,26.8,26.8,0,0,1,6.33-.713H355.4a6.186,6.186,0,0,0-1.961-4.814,8.114,8.114,0,0,0-5.647-1.783,11.3,11.3,0,0,0-3.685.654,11.16,11.16,0,0,0-3.8,2.377l-5.052-5.11a19.416,19.416,0,0,1,6.33-4.042,19.888,19.888,0,0,1,7.4-1.426,16.782,16.782,0,0,1,6.35,1.129,13.039,13.039,0,0,1,7.653,7.964,23.36,23.36,0,0,1,.915,7.132Zm-8.559-8.559v-6.359h-3.923a22.589,22.589,0,0,0-3.357.238,9.459,9.459,0,0,0-2.735.8,5.081,5.081,0,0,0-1.842,1.456,3.416,3.416,0,0,0-.683,2.14,3.573,3.573,0,0,0,1.4,2.912,5.538,5.538,0,0,0,3.6,1.129,12.392,12.392,0,0,0,3.774-.594A18.1,18.1,0,0,0,355.344,234.881Z"/>
      <path class="cls-1" d="M385,243.261a11.912,11.912,0,0,1-4.932,1.069,13.166,13.166,0,0,1-3.656-.5,8,8,0,0,1-3.061-1.635,7.88,7.88,0,0,1-2.08-2.941,11.114,11.114,0,0,1-.773-4.369V194.11h8.737V233.4a3.948,3.948,0,0,0,.862,2.941,2.9,2.9,0,0,0,2.051.8,5.143,5.143,0,0,0,2.852-.891Z"/>
    </g>
    <g>
      <path id="_Path_" data-name="&lt;Path&gt;" class="cls-1" d="M247.348,60.217a44.755,44.755,0,0,1,44.506,40.291,35.056,35.056,0,0,1,34.29,59.36A27.555,27.555,0,0,1,305.681,169H195.151a27.635,27.635,0,0,1,0-55.271h8.325a44.723,44.723,0,0,1,43.872-53.513"/>
      <g>
        <g id="_Group_" data-name="&lt;Group&gt;">
          <path id="_Path_2" data-name="&lt;Path&gt;" class="cls-2" d="M217.366,16.761,214.742,0,205.1,14A66.143,66.143,0,0,1,217.366,16.761Z"/>
          <path id="_Path_3" data-name="&lt;Path&gt;" class="cls-2" d="M187.988,14,178.345,0l-2.62,16.761A65.965,65.965,0,0,1,187.988,14Z"/>
          <path id="_Path_4" data-name="&lt;Path&gt;" class="cls-2" d="M139.789,45.449l-16.956-1.192,11.5,12.518A66.427,66.427,0,0,1,139.789,45.449Z"/>
          <path id="_Path_5" data-name="&lt;Path&gt;" class="cls-2" d="M160.264,24.209l-14.732-8.394,4.916,16.24A66.367,66.367,0,0,1,160.264,24.209Z"/>
          <path id="_Path_6" data-name="&lt;Path&gt;" class="cls-2" d="M242.64,32.055l4.916-16.236-14.732,8.389A66.57,66.57,0,0,1,242.64,32.055Z"/>
          <path id="_Path_7" data-name="&lt;Path&gt;" class="cls-2" d="M258.761,56.781l11.5-12.519L253.3,45.453A66.812,66.812,0,0,1,258.761,56.781Z"/>
          <path id="_Path_8" data-name="&lt;Path&gt;" class="cls-2" d="M130.158,79.772c0-2.118.124-4.211.317-6.288l-15.733,6.288,15.733,6.286C130.282,83.986,130.158,81.895,130.158,79.772Z"/>
          <path id="_Path_9" data-name="&lt;Path&gt;" class="cls-2" d="M134.33,102.763l-11.5,12.519,16.96-1.191A66.267,66.267,0,0,1,134.33,102.763Z"/>
          <path id="_Path_10" data-name="&lt;Path&gt;" class="cls-2" d="M150.448,127.491l-4.916,16.23,14.732-8.391A66.668,66.668,0,0,1,150.448,127.491Z"/>
        </g>
        <path id="_Path_11" data-name="&lt;Path&gt;" class="cls-2" d="M192.583,106.855h.615c-.026-.635-.034-1.267-.034-1.9A51.671,51.671,0,0,1,244.78,53.343c1.186,0,2.356.069,3.523.146a58.055,58.055,0,1,0-86.642,72.655A34.5,34.5,0,0,1,192.583,106.855Z"/>
      </g>
    </g>
  </g>
</svg>
