<svg id="Capa_1" data-name="Capa 1" xmlns="http://www.w3.org/2000/svg" viewBox="0 0 119 33">
  <defs>
    <style>
      .cls-1 {
        fill: navy;
      }

      .cls-2 {
        fill: #fff;
      }
    </style>
  </defs>
  <title>continuar</title>
  <rect class="cls-1" width="119" height="33" rx="4" ry="4"/>
  <g>
    <path class="cls-2" d="M15.953,10.879a5.786,5.786,0,0,1,4.32-1.735A5.82,5.82,0,0,1,25.4,11.47a5.074,5.074,0,0,1,.962,2.622H23.43a4.009,4.009,0,0,0-.719-1.526,2.9,2.9,0,0,0-2.326-.915,2.866,2.866,0,0,0-2.475,1.292A6.314,6.314,0,0,0,17,16.6a5.538,5.538,0,0,0,.956,3.542,3,3,0,0,0,2.43,1.178,2.75,2.75,0,0,0,2.3-1.011,4.434,4.434,0,0,0,.728-1.63h2.918a6.326,6.326,0,0,1-1.929,3.738,5.611,5.611,0,0,1-3.976,1.44,5.965,5.965,0,0,1-4.716-1.945A7.838,7.838,0,0,1,14,16.552,7.768,7.768,0,0,1,15.953,10.879Z"/>
    <path class="cls-2" d="M37.16,22.193a4.835,4.835,0,0,1-4,1.624,4.835,4.835,0,0,1-4-1.624,6.014,6.014,0,0,1-1.316-3.91,6.056,6.056,0,0,1,1.316-3.9,4.8,4.8,0,0,1,4-1.648,4.8,4.8,0,0,1,4,1.648,6.056,6.056,0,0,1,1.316,3.9A6.014,6.014,0,0,1,37.16,22.193Zm-2.174-1.5a3.939,3.939,0,0,0,.639-2.409,3.917,3.917,0,0,0-.639-2.4,2.415,2.415,0,0,0-3.666,0,3.893,3.893,0,0,0-.644,2.4,3.915,3.915,0,0,0,.644,2.409,2.406,2.406,0,0,0,3.666,0Z"/>
    <path class="cls-2" d="M48.8,13.668a3.439,3.439,0,0,1,1.021,2.8v7H47.038V17.144a2.91,2.91,0,0,0-.218-1.259,1.529,1.529,0,0,0-1.514-.8,1.877,1.877,0,0,0-1.884,1.173,4.051,4.051,0,0,0-.265,1.583v5.625H40.44V13.091h2.632v1.516a4.6,4.6,0,0,1,.987-1.154,3.422,3.422,0,0,1,2.117-.629A3.983,3.983,0,0,1,48.8,13.668Z"/>
    <path class="cls-2" d="M51.281,15.1V13.168h1.449v-2.9h2.689v2.9h1.688V15.1H55.419V20.6a1.233,1.233,0,0,0,.162.8,1.786,1.786,0,0,0,.992.157c.082,0,.17,0,.262,0s.182-.007.272-.014V23.56l-1.287.048a3.455,3.455,0,0,1-2.632-.667,1.987,1.987,0,0,1-.458-1.44V15.1Z"/>
    <path class="cls-2" d="M61.646,11.833H58.89V9.325h2.756Zm-2.756,1.24h2.756V23.465H58.89Z"/>
    <path class="cls-2" d="M72.658,13.668a3.443,3.443,0,0,1,1.02,2.8v7H70.894V17.144a2.9,2.9,0,0,0-.218-1.259,1.528,1.528,0,0,0-1.514-.8,1.878,1.878,0,0,0-1.884,1.173,4.063,4.063,0,0,0-.265,1.583v5.625H64.3V13.091h2.632v1.516a4.614,4.614,0,0,1,.987-1.154,3.425,3.425,0,0,1,2.118-.629A3.986,3.986,0,0,1,72.658,13.668Z"/>
    <path class="cls-2" d="M78.913,13.072v6.264a3.286,3.286,0,0,0,.209,1.335,1.443,1.443,0,0,0,1.452.791,1.9,1.9,0,0,0,1.9-1.125,4.081,4.081,0,0,0,.266-1.611V13.072h2.756V23.465H82.851V22c-.025.032-.088.128-.191.286a1.882,1.882,0,0,1-.361.42,3.754,3.754,0,0,1-1.231.782,4.192,4.192,0,0,1-1.392.21,3.1,3.1,0,0,1-3.1-1.659,6.361,6.361,0,0,1-.447-2.7V13.072Z"/>
    <path class="cls-2" d="M92.25,17.144a4.271,4.271,0,0,0,1.085-.238.817.817,0,0,0,.586-.772.914.914,0,0,0-.449-.882,2.842,2.842,0,0,0-1.319-.243,1.734,1.734,0,0,0-1.383.477,1.969,1.969,0,0,0-.386.953H87.761a3.971,3.971,0,0,1,.766-2.241,4.465,4.465,0,0,1,3.715-1.373,6.625,6.625,0,0,1,3.045.677,2.6,2.6,0,0,1,1.331,2.555v4.767q0,.5.019,1.2a1.5,1.5,0,0,0,.162.725.973.973,0,0,0,.4.315v.4H94.245a3.075,3.075,0,0,1-.172-.591c-.032-.184-.057-.393-.076-.629a5.576,5.576,0,0,1-1.3,1.039,3.953,3.953,0,0,1-2,.505,3.448,3.448,0,0,1-2.346-.806,2.866,2.866,0,0,1-.925-2.284,2.958,2.958,0,0,1,1.489-2.775,6.663,6.663,0,0,1,2.4-.667Zm1.661,1.268a3.011,3.011,0,0,1-.527.262,4.476,4.476,0,0,1-.729.186l-.619.114a4.1,4.1,0,0,0-1.249.372,1.242,1.242,0,0,0-.642,1.154,1.205,1.205,0,0,0,.392,1.006,1.485,1.485,0,0,0,.953.31,2.842,2.842,0,0,0,1.641-.515,2.179,2.179,0,0,0,.779-1.878Z"/>
    <path class="cls-2" d="M104.766,12.829c.035,0,.113.008.234.014v2.784q-.257-.029-.458-.038c-.133-.006-.242-.01-.324-.01a2.255,2.255,0,0,0-2.2,1.068,4.157,4.157,0,0,0-.315,1.85v4.968H98.965V13.072h2.593v1.812a5.767,5.767,0,0,1,1.1-1.421,2.987,2.987,0,0,1,1.983-.639C104.689,12.824,104.732,12.826,104.766,12.829Z"/>
  </g>
</svg>
