<svg id="Capa_1" data-name="Capa 1" xmlns="http://www.w3.org/2000/svg" viewBox="0 0 119 33">
  <defs>
    <style>
      .cls-1 {
        fill: navy;
      }

      .cls-2 {
        fill: #fff;
      }
    </style>
  </defs>
  <title>enviar</title>
  <rect class="cls-1" width="119" height="33" rx="4" ry="4"/>
  <g>
    <path class="cls-2" d="M40.589,11.762H33.024V14.8h6.944v2.483H33.024v3.676h7.914v2.57H30.105V9.231H40.589Z"/>
    <path class="cls-2" d="M51.566,13.561A3.5,3.5,0,0,1,52.6,16.408v7.118H49.773V17.1a2.959,2.959,0,0,0-.221-1.28A1.555,1.555,0,0,0,48.011,15,1.909,1.909,0,0,0,46.1,16.195a4.12,4.12,0,0,0-.27,1.61v5.722H43.062V12.975h2.677v1.542a4.681,4.681,0,0,1,1-1.173A3.48,3.48,0,0,1,48.9,12.7,4.052,4.052,0,0,1,51.566,13.561Z"/>
    <path class="cls-2" d="M61.687,12.955h2.968L60.837,23.526H57.923L54.132,12.955h3.1l2.2,7.8Z"/>
    <path class="cls-2" d="M69.062,11.695h-2.8V9.144h2.8Zm-2.8,1.261h2.8V23.526h-2.8Z"/>
    <path class="cls-2" d="M75.926,17.1a4.363,4.363,0,0,0,1.1-.242.832.832,0,0,0,.6-.786.93.93,0,0,0-.457-.9,2.89,2.89,0,0,0-1.342-.247,1.762,1.762,0,0,0-1.406.485,2,2,0,0,0-.393.97H71.361A4.043,4.043,0,0,1,72.14,14.1a4.541,4.541,0,0,1,3.779-1.4,6.74,6.74,0,0,1,3.1.689,2.641,2.641,0,0,1,1.354,2.6V20.84q0,.5.019,1.222a1.53,1.53,0,0,0,.165.737.982.982,0,0,0,.407.32v.407H77.955a3.043,3.043,0,0,1-.175-.6c-.033-.187-.058-.4-.078-.64a5.7,5.7,0,0,1-1.327,1.057,4.011,4.011,0,0,1-2.029.514,3.5,3.5,0,0,1-2.385-.819,2.914,2.914,0,0,1-.941-2.323,3.01,3.01,0,0,1,1.514-2.822,6.773,6.773,0,0,1,2.443-.679Zm1.69,1.29a3.042,3.042,0,0,1-.536.267,4.545,4.545,0,0,1-.743.189l-.629.116a4.152,4.152,0,0,0-1.27.378,1.263,1.263,0,0,0-.653,1.173,1.225,1.225,0,0,0,.4,1.023,1.514,1.514,0,0,0,.97.315,2.889,2.889,0,0,0,1.669-.524,2.218,2.218,0,0,0,.793-1.911Z"/>
    <path class="cls-2" d="M88.657,12.708c.035,0,.115.008.238.015v2.832q-.262-.029-.466-.039c-.136-.006-.246-.01-.33-.01a2.293,2.293,0,0,0-2.24,1.086,4.226,4.226,0,0,0-.32,1.881v5.053H82.756V12.955h2.638V14.8a5.851,5.851,0,0,1,1.115-1.445,3.037,3.037,0,0,1,2.017-.65C88.578,12.7,88.622,12.705,88.657,12.708Z"/>
  </g>
</svg>
