<svg id="Capa_1" data-name="Capa 1" xmlns="http://www.w3.org/2000/svg" viewBox="0 0 333.553 50">
  <defs>
    <style>
      .cls-1 {
        fill: #fff;
      }

      .cls-2 {
        fill: #ff0;
      }
    </style>
  </defs>
  <title>LOGO CL2019 2</title>
  <g>
    <g>
      <path class="cls-1" d="M108.033,43.728a17.543,17.543,0,0,1-5.74,4.576A16.314,16.314,0,0,1,94.857,50a17.1,17.1,0,0,1-11.942-4.773,16.323,16.323,0,0,1-3.589-5.187,16.306,16.306,0,0,1,0-12.821,16.426,16.426,0,0,1,8.944-8.7,17.185,17.185,0,0,1,6.587-1.263,16.322,16.322,0,0,1,7.436,1.7,17.213,17.213,0,0,1,5.622,4.418l-4.221,4.339a11.091,11.091,0,0,0-3.767-3.373,10.651,10.651,0,0,0-9.231-.434,11.119,11.119,0,0,0-3.412,2.288,10.822,10.822,0,0,0-2.307,3.353,10.157,10.157,0,0,0,0,8.126,10.822,10.822,0,0,0,2.307,3.353A11.108,11.108,0,0,0,90.7,43.314a10.333,10.333,0,0,0,4.162.848,10.009,10.009,0,0,0,5.168-1.321,11.74,11.74,0,0,0,3.747-3.491Z"/>
      <path class="cls-1" d="M120.065,49.29a7.907,7.907,0,0,1-3.274.71,8.739,8.739,0,0,1-2.426-.335,5.308,5.308,0,0,1-2.031-1.085,5.23,5.23,0,0,1-1.381-1.952,7.377,7.377,0,0,1-.513-2.9V16.667h5.8V42.742a2.621,2.621,0,0,0,.572,1.952,1.927,1.927,0,0,0,1.361.533,3.414,3.414,0,0,0,1.893-.592Z"/>
      <path class="cls-1" d="M128.743,22.623h-5.918V16.706h5.918Zm-.079,26.785H122.9V26.568h5.759Z"/>
      <path class="cls-1" d="M167.638,49.408h-5.681V35.8a5.153,5.153,0,0,0-1.164-3.649,3.765,3.765,0,0,0-2.86-1.243,7.3,7.3,0,0,0-2.465.414,7.217,7.217,0,0,0-2.268,1.361,12.554,12.554,0,0,1,.355,3.116v13.61h-5.68V35.8a5.156,5.156,0,0,0-1.164-3.649,3.723,3.723,0,0,0-2.821-1.243,5.424,5.424,0,0,0-2.288.454,8.072,8.072,0,0,0-2.052,1.44V49.408H133.87v-22.8h5.681l.007,1.7a8.505,8.505,0,0,1,2.508-1.657,7.275,7.275,0,0,1,2.943-.631,8.134,8.134,0,0,1,3.337.749,8.605,8.605,0,0,1,2.943,2.169,10.615,10.615,0,0,1,7.583-2.919,10.61,10.61,0,0,1,3.377.533,7.137,7.137,0,0,1,2.784,1.7,8.443,8.443,0,0,1,1.9,2.959,11.744,11.744,0,0,1,.711,4.319Z"/>
      <path class="cls-1" d="M190.439,49.408h-5.681V48.185a9.388,9.388,0,0,1-3.175,1.42,15.047,15.047,0,0,1-3.452.394,8.647,8.647,0,0,1-3-.493,6.743,6.743,0,0,1-2.327-1.42,6.347,6.347,0,0,1-1.519-2.189,7.144,7.144,0,0,1-.533-2.8,6.524,6.524,0,0,1,.848-3.373,7.323,7.323,0,0,1,2.308-2.406,10.682,10.682,0,0,1,3.412-1.44,17.79,17.79,0,0,1,4.2-.473H184.8a4.106,4.106,0,0,0-1.3-3.2,5.385,5.385,0,0,0-3.748-1.183,7.5,7.5,0,0,0-2.446.434,7.407,7.407,0,0,0-2.524,1.577l-3.353-3.392a12.887,12.887,0,0,1,4.2-2.683,13.2,13.2,0,0,1,4.911-.946,11.139,11.139,0,0,1,4.215.749,8.654,8.654,0,0,1,5.08,5.286,15.505,15.505,0,0,1,.607,4.734Zm-5.681-5.681V39.507h-2.6a14.993,14.993,0,0,0-2.228.158,6.278,6.278,0,0,0-1.815.533,3.373,3.373,0,0,0-1.223.966,2.267,2.267,0,0,0-.453,1.42,2.372,2.372,0,0,0,.927,1.933,3.676,3.676,0,0,0,2.387.749,8.225,8.225,0,0,0,2.5-.394A12.014,12.014,0,0,0,184.758,43.728Z"/>
      <path class="cls-1" d="M204.442,49.29a7.907,7.907,0,0,1-3.274.71,8.739,8.739,0,0,1-2.426-.335,5.308,5.308,0,0,1-2.031-1.085,5.23,5.23,0,0,1-1.381-1.952,7.377,7.377,0,0,1-.513-2.9V16.667h5.8V42.742a2.621,2.621,0,0,0,.572,1.952,1.927,1.927,0,0,0,1.361.533,3.414,3.414,0,0,0,1.893-.592Z"/>
      <path class="cls-1" d="M225.7,49.408h-5.681V48.185a9.388,9.388,0,0,1-3.175,1.42A15.047,15.047,0,0,1,213.4,50a8.647,8.647,0,0,1-3-.493,6.743,6.743,0,0,1-2.327-1.42,6.347,6.347,0,0,1-1.519-2.189,7.144,7.144,0,0,1-.533-2.8,6.524,6.524,0,0,1,.848-3.373,7.323,7.323,0,0,1,2.308-2.406,10.682,10.682,0,0,1,3.412-1.44,17.79,17.79,0,0,1,4.2-.473h3.274a4.106,4.106,0,0,0-1.3-3.2,5.385,5.385,0,0,0-3.748-1.183,7.5,7.5,0,0,0-2.446.434,7.407,7.407,0,0,0-2.524,1.577l-3.353-3.392a12.887,12.887,0,0,1,4.2-2.683,13.2,13.2,0,0,1,4.911-.946,11.139,11.139,0,0,1,4.215.749,8.654,8.654,0,0,1,5.08,5.286,15.505,15.505,0,0,1,.607,4.734Zm-5.681-5.681V39.507h-2.6a14.993,14.993,0,0,0-2.228.158,6.278,6.278,0,0,0-1.815.533,3.373,3.373,0,0,0-1.223.966,2.267,2.267,0,0,0-.453,1.42,2.372,2.372,0,0,0,.927,1.933,3.676,3.676,0,0,0,2.387.749,8.225,8.225,0,0,0,2.5-.394A12.014,12.014,0,0,0,220.024,43.728Z"/>
      <path class="cls-1" d="M252.016,38.008a12.974,12.974,0,0,1-.81,4.576,11.9,11.9,0,0,1-2.274,3.806,10.981,10.981,0,0,1-3.48,2.6,10.121,10.121,0,0,1-4.429.966,9.234,9.234,0,0,1-2.808-.414,7.681,7.681,0,0,1-2.452-1.322v1.183h-5.681V16.667h5.72l.04,11.045a7.856,7.856,0,0,1,2.347-1.262,8.639,8.639,0,0,1,2.859-.473,9.467,9.467,0,0,1,4.064.927,11.677,11.677,0,0,1,3.511,2.545,12.591,12.591,0,0,1,2.465,3.807A12.067,12.067,0,0,1,252.016,38.008Zm-5.759,0a8.356,8.356,0,0,0-.475-2.88,6.592,6.592,0,0,0-1.327-2.229,5.748,5.748,0,0,0-2.019-1.42,6.613,6.613,0,0,0-2.594-.493,7.089,7.089,0,0,0-2.1.375,6.628,6.628,0,0,0-1.98.966V43.294a6.068,6.068,0,0,0,4.2,1.7,6.174,6.174,0,0,0,2.514-.513,5.75,5.75,0,0,0,2-1.44,6.811,6.811,0,0,0,1.307-2.209A8.069,8.069,0,0,0,246.257,38.008Z"/>
      <path class="cls-1" d="M279.116,38.008a11.842,11.842,0,0,1-.947,4.753,11.582,11.582,0,0,1-2.6,3.787,12.4,12.4,0,0,1-3.886,2.525,12.269,12.269,0,0,1-4.753.927,12.122,12.122,0,0,1-4.734-.927,12.263,12.263,0,0,1-3.866-2.545,11.8,11.8,0,0,1-3.55-8.521,11.439,11.439,0,0,1,.966-4.675,12.318,12.318,0,0,1,2.623-3.827,12.138,12.138,0,0,1,8.56-3.491,12.257,12.257,0,0,1,4.753.927,12.406,12.406,0,0,1,3.886,2.524,11.535,11.535,0,0,1,2.6,3.807A11.891,11.891,0,0,1,279.116,38.008Zm-5.681,0a7.178,7.178,0,0,0-.512-2.722,7.1,7.1,0,0,0-1.4-2.209,6.407,6.407,0,0,0-2.064-1.479,6.214,6.214,0,0,0-5.034,0,6.409,6.409,0,0,0-2.065,1.479,7.28,7.28,0,0,0,0,9.862,6.4,6.4,0,0,0,2.065,1.479,6.214,6.214,0,0,0,5.034,0,6.4,6.4,0,0,0,2.064-1.479,7.08,7.08,0,0,0,1.4-2.209A7.175,7.175,0,0,0,273.436,38.008Z"/>
      <path class="cls-1" d="M299.037,28.974,296,33.787a10.56,10.56,0,0,0-1.835-1.6,3.563,3.563,0,0,0-2.031-.69,3.305,3.305,0,0,0-1.2.256,3.5,3.5,0,0,0-1.223.848,4.845,4.845,0,0,0-.966,1.559,6.33,6.33,0,0,0-.395,2.386v12.86h-5.681v-22.8h5.681v2.446a8.172,8.172,0,0,1,2.269-2.249,5.08,5.08,0,0,1,2.781-.788,5.942,5.942,0,0,1,2.939.809A11.392,11.392,0,0,1,299.037,28.974Z"/>
      <path class="cls-1" d="M319.55,49.408h-5.681V48.185a9.388,9.388,0,0,1-3.175,1.42,15.047,15.047,0,0,1-3.452.394,8.647,8.647,0,0,1-3-.493,6.743,6.743,0,0,1-2.327-1.42A6.347,6.347,0,0,1,300.4,45.9a7.144,7.144,0,0,1-.533-2.8,6.524,6.524,0,0,1,.848-3.373,7.323,7.323,0,0,1,2.308-2.406,10.682,10.682,0,0,1,3.412-1.44,17.79,17.79,0,0,1,4.2-.473h3.274a4.106,4.106,0,0,0-1.3-3.2,5.385,5.385,0,0,0-3.748-1.183,7.5,7.5,0,0,0-2.446.434,7.407,7.407,0,0,0-2.524,1.577l-3.353-3.392a12.887,12.887,0,0,1,4.2-2.683,13.2,13.2,0,0,1,4.911-.946,11.139,11.139,0,0,1,4.215.749,8.654,8.654,0,0,1,5.08,5.286,15.505,15.505,0,0,1,.607,4.734Zm-5.681-5.681V39.507h-2.6a14.993,14.993,0,0,0-2.228.158,6.278,6.278,0,0,0-1.815.533,3.373,3.373,0,0,0-1.223.966,2.267,2.267,0,0,0-.453,1.42,2.372,2.372,0,0,0,.927,1.933,3.676,3.676,0,0,0,2.387.749,8.225,8.225,0,0,0,2.5-.394A12.014,12.014,0,0,0,313.869,43.728Z"/>
      <path class="cls-1" d="M333.553,49.29a7.907,7.907,0,0,1-3.274.71,8.739,8.739,0,0,1-2.426-.335,5.308,5.308,0,0,1-2.031-1.085,5.23,5.23,0,0,1-1.381-1.952,7.377,7.377,0,0,1-.513-2.9V16.667h5.8V42.742a2.621,2.621,0,0,0,.572,1.952,1.927,1.927,0,0,0,1.361.533,3.414,3.414,0,0,0,1.893-.592Z"/>
    </g>
    <g>
      <path id="_Path_" data-name="&lt;Path&gt;" class="cls-1" d="M39.233,17.816A13.241,13.241,0,0,1,52.4,29.736,10.371,10.371,0,0,1,62.545,47.3,8.152,8.152,0,0,1,56.491,50H23.79a8.176,8.176,0,0,1,0-16.352h2.463a13.232,13.232,0,0,1,12.98-15.832"/>
      <g>
        <g id="_Group_" data-name="&lt;Group&gt;">
          <path id="_Path_2" data-name="&lt;Path&gt;" class="cls-2" d="M30.362,4.959,29.586,0,26.733,4.141A19.569,19.569,0,0,1,30.362,4.959Z"/>
          <path id="_Path_3" data-name="&lt;Path&gt;" class="cls-2" d="M21.67,4.141,18.817,0l-.775,4.959A19.516,19.516,0,0,1,21.67,4.141Z"/>
          <path id="_Path_4" data-name="&lt;Path&gt;" class="cls-2" d="M7.41,13.447l-5.017-.353,3.4,3.7A19.653,19.653,0,0,1,7.41,13.447Z"/>
          <path id="_Path_5" data-name="&lt;Path&gt;" class="cls-2" d="M13.468,7.162,9.109,4.679l1.454,4.8A19.635,19.635,0,0,1,13.468,7.162Z"/>
          <path id="_Path_6" data-name="&lt;Path&gt;" class="cls-2" d="M37.839,9.484l1.454-4.8L34.935,7.162A19.7,19.7,0,0,1,37.839,9.484Z"/>
          <path id="_Path_7" data-name="&lt;Path&gt;" class="cls-2" d="M42.609,16.8l3.4-3.7-5.018.352A19.767,19.767,0,0,1,42.609,16.8Z"/>
          <path id="_Path_8" data-name="&lt;Path&gt;" class="cls-2" d="M4.561,23.6c0-.627.037-1.246.094-1.86L0,23.6l4.655,1.86C4.6,24.848,4.561,24.229,4.561,23.6Z"/>
          <path id="_Path_9" data-name="&lt;Path&gt;" class="cls-2" d="M5.8,30.4l-3.4,3.7,5.018-.352A19.606,19.606,0,0,1,5.8,30.4Z"/>
          <path id="_Path_10" data-name="&lt;Path&gt;" class="cls-2" d="M10.564,37.719l-1.454,4.8,4.359-2.483A19.724,19.724,0,0,1,10.564,37.719Z"/>
        </g>
        <path id="_Path_11" data-name="&lt;Path&gt;" class="cls-2" d="M23.03,31.614h.182c-.008-.188-.01-.375-.01-.561A15.287,15.287,0,0,1,38.473,15.782c.351,0,.7.02,1.042.043a17.176,17.176,0,1,0-25.634,21.5A10.208,10.208,0,0,1,23.03,31.614Z"/>
      </g>
    </g>
  </g>
</svg>
