<svg id="Capa_1" data-name="Capa 1" xmlns="http://www.w3.org/2000/svg" viewBox="0 0 331.384 43.676">
  <defs>
    <style>
      .cls-1 {
        fill: #fff;
      }
    </style>
  </defs>
  <title>LOGO AUTOFIN</title>
  <g>
    <polygon class="cls-1" points="216.076 32.758 221.468 32.759 222.549 7.459 217.157 7.458 216.076 32.758"/>
    <polygon class="cls-1" points="165.161 0.001 159.723 0 141.694 43.676 147.635 43.659 162.043 6.326 166.117 18.221 160.435 18.22 158.723 23.08 167.595 23.082 170.251 32.758 176.142 32.76 165.161 0.001"/>
    <polygon class="cls-1" points="233.29 0.023 206.989 0.017 206.779 5.006 233.08 5.012 233.29 0.023"/>
    <path class="cls-1" d="M197.881,19.545c-.3,7.013-2.821,8.3-7.68,8.295-6.9,0-7.473-2.664-7.194-9.2L183.8,0h-5.39l-.8,18.851c-.376,8.808,1.466,13.906,11.993,13.908,10.962,0,13.331-5.206,13.715-14.2L204.107.005h-5.392Z"/>
    <polygon class="cls-1" points="325.991 0.022 325.011 23.494 311.323 0.019 305.558 0.017 304.19 32.753 309.58 32.755 310.56 9.31 324.381 32.758 330.016 32.759 331.384 0.023 325.991 0.022"/>
    <polygon class="cls-1" points="267.462 32.758 272.854 32.759 274.016 4.952 291.239 4.956 291.445 0.022 268.83 0.017 267.462 32.758"/>
    <polygon class="cls-1" points="293.776 32.758 299.166 32.759 300.534 0.018 295.144 0.017 293.776 32.758"/>
    <path class="cls-1" d="M248.966.017C238.6.015,233.1,5.5,232.63,16.322c-.476,10.906,4.554,16.435,14.949,16.437s15.907-5.513,16.382-16.39C264.435,5.522,259.391.019,248.966.017Zm9.473,16.395c-.363,8.31-3.349,11.547-10.651,11.546-7.2,0-10-3.361-9.638-11.594.363-8.31,3.347-11.547,10.648-11.546S258.8,8.07,258.439,16.412Z"/>
    <polygon class="cls-1" points="276.786 17.755 287.865 17.758 288.069 12.898 276.99 12.895 276.786 17.755"/>
    <path class="cls-1" d="M125.815,8.192s-4.341-.1-6.139,2.416c-.918,1.285-1.371,3.183-1.32,5.972.047,2.553.439,4.564,1.255,5.794,1.928,2.909,6.2,2.624,6.2,2.624s4.679.122,6.15-2.46a12.056,12.056,0,0,0,1.308-5.926A11.068,11.068,0,0,0,132.194,11C130.462,7.993,125.815,8.192,125.815,8.192Z"/>
    <path class="cls-1" d="M17.206.022S0-1.156,0,16.046C0,33.612,17.257,32.572,17.257,32.572h122.65L153.634,0Zm1.95,28.564C6.859,28.5,7,18.917,6.889,16.43S7.46,4.118,18.92,4.209c6.386,0,10.073,2.866,10.745,7.736l.122.695H25.577l-.082-.622s-.206-4.188-6.246-3.933-7.783,1.838-8.041,8.28,3.321,8.632,7.62,8.46c4.315-.173,6.772-1,7.089-5.865H18.6V15.071H30.268v2.535S31.281,28.673,19.156,28.586Zm34.318-.39L46.561,18.96H43.394V15.071h4.643c2.751,0,4.393.045,4.393-3.384,0-3.407-2.857-3.019-3.789-3.071l-7.192-.009V28.2H37.074V4.587s6.1-.044,9.842.022,9.9.12,9.9,6.822-5.267,6.78-5.267,6.78L58.719,28.2ZM83.233,18.015c-.131,3.335.172,10.646-10.1,10.3-4.172-.14-6.809-.827-8.165-3.382a16.261,16.261,0,0,1-1.4-6.741l.024-13.7,4.339-.025s-.053,9.855,0,13.611c.049,3.475,0,6.359,5.785,6.359,3.424,0,4.413-1.5,4.772-3.317a17.822,17.822,0,0,0,.229-3.1l.005-13.548,4.48-.008S83.363,14.68,83.233,18.015Zm20.6.511a43.329,43.329,0,0,1-7.158.309l-.018-3.543,4.645-.048s2.28-.032,2.934-.963a4.151,4.151,0,0,0,.515-2.4,2.924,2.924,0,0,0-.809-2.478c-.858-.76-2.97-.651-2.97-.651H94.439V28.2H90.194L90.2,4.8l9.137-.043c.89.089,9.687-.954,9.658,6.968C109,15.7,106.743,18.091,103.829,18.526Zm21.937,10.107c-5.764-.114-11.7-2.139-11.788-12.239s6.374-12.069,11.755-12.147c3.094-.045,11.931.607,11.819,12.178C137.456,26.46,131.53,28.746,125.766,28.633Z"/>
  </g>
</svg>
