<svg id="Capa_1" data-name="Capa 1" xmlns="http://www.w3.org/2000/svg" viewBox="0 0 119 33">
  <defs>
    <style>
      .cls-1 {
        fill: navy;
      }

      .cls-2 {
        fill: #fff;
      }
    </style>
  </defs>
  <title>salir</title>
  <rect class="cls-1" width="119" height="33" rx="4" ry="4"/>
  <g>
    <path class="cls-2" d="M41.836,19.192a2.827,2.827,0,0,0,.531,1.429,3.093,3.093,0,0,0,2.483.861,5.338,5.338,0,0,0,1.71-.227,1.622,1.622,0,0,0,1.246-1.618,1.193,1.193,0,0,0-.61-1.069,6.626,6.626,0,0,0-1.937-.653l-1.51-.331a9.385,9.385,0,0,1-3.058-1.069,3.4,3.4,0,0,1-1.41-3.018,4.008,4.008,0,0,1,1.379-3.113,5.881,5.881,0,0,1,4.052-1.239,6.212,6.212,0,0,1,3.807,1.168A4.155,4.155,0,0,1,50.171,13.7h-2.8a2,2,0,0,0-1.125-1.788,3.858,3.858,0,0,0-1.736-.35,3.307,3.307,0,0,0-1.843.454,1.437,1.437,0,0,0-.688,1.268,1.2,1.2,0,0,0,.679,1.116,8.4,8.4,0,0,0,1.853.577l2.447.577a6.233,6.233,0,0,1,2.412,1.012,3.413,3.413,0,0,1,1.247,2.848,4,4,0,0,1-1.478,3.174,6.234,6.234,0,0,1-4.174,1.263,6.821,6.821,0,0,1-4.332-1.244,4.115,4.115,0,0,1-1.578-3.42Z"/>
    <path class="cls-2" d="M56.527,17.224a4.256,4.256,0,0,0,1.077-.237.811.811,0,0,0,.581-.766.907.907,0,0,0-.446-.875A2.82,2.82,0,0,0,56.43,15.1a1.719,1.719,0,0,0-1.371.473,1.948,1.948,0,0,0-.384.946h-2.6a3.944,3.944,0,0,1,.76-2.223,4.43,4.43,0,0,1,3.686-1.362,6.575,6.575,0,0,1,3.022.672,2.576,2.576,0,0,1,1.321,2.536v4.731q0,.492.019,1.192a1.492,1.492,0,0,0,.161.719.958.958,0,0,0,.4.312v.4H58.507a2.969,2.969,0,0,1-.17-.587c-.032-.183-.057-.391-.076-.624a5.564,5.564,0,0,1-1.294,1.031,3.913,3.913,0,0,1-1.979.5,3.416,3.416,0,0,1-2.327-.8,2.843,2.843,0,0,1-.918-2.266A2.937,2.937,0,0,1,53.219,18a6.608,6.608,0,0,1,2.383-.662Zm1.649,1.258a2.968,2.968,0,0,1-.523.26,4.434,4.434,0,0,1-.724.184l-.614.114a4.05,4.05,0,0,0-1.239.369,1.232,1.232,0,0,0-.637,1.145,1.2,1.2,0,0,0,.389,1,1.477,1.477,0,0,0,.946.307,2.819,2.819,0,0,0,1.628-.511,2.163,2.163,0,0,0,.773-1.864Z"/>
    <path class="cls-2" d="M65.971,23.5h-2.7V9.551h2.7Z"/>
    <path class="cls-2" d="M71.374,11.954H68.639V9.466h2.734Zm-2.734,1.23h2.734V23.5H68.639Z"/>
    <path class="cls-2" d="M79.714,12.943c.034,0,.112.008.232.014v2.763q-.255-.028-.454-.038c-.132-.006-.24-.009-.322-.009a2.237,2.237,0,0,0-2.186,1.06,4.123,4.123,0,0,0-.312,1.835V23.5H73.957V13.184H76.53v1.8a5.708,5.708,0,0,1,1.088-1.41,2.963,2.963,0,0,1,1.968-.634C79.636,12.938,79.679,12.94,79.714,12.943Z"/>
  </g>
</svg>
