<svg id="Capa_1" data-name="Capa 1" xmlns="http://www.w3.org/2000/svg" viewBox="0 0 78 26">
  <defs>
    <style>
      .cls-1 {
        fill: #0071bc;
      }

      .cls-2 {
        fill: #fff;
      }
    </style>
  </defs>
  <title>Enviar 2</title>
  <rect class="cls-1" width="78" height="26" rx="3" ry="3"/>
  <g>
    <path class="cls-2" d="M19.976,8.492h-7.2V11.38h6.608v2.363H12.778v3.5h7.531v2.446H10V6.083h9.976Z"/>
    <path class="cls-2" d="M30.423,10.2a3.329,3.329,0,0,1,.987,2.709v6.774H28.716V13.568a2.818,2.818,0,0,0-.211-1.218,1.48,1.48,0,0,0-1.466-.775,1.816,1.816,0,0,0-1.823,1.135,3.929,3.929,0,0,0-.257,1.532v5.445H22.33V9.645h2.547v1.467A4.462,4.462,0,0,1,25.832,10a3.315,3.315,0,0,1,2.05-.609A3.859,3.859,0,0,1,30.423,10.2Z"/>
    <path class="cls-2" d="M40.053,9.627h2.824L39.244,19.686H36.471L32.864,9.627h2.953l2.095,7.42Z"/>
    <path class="cls-2" d="M47.072,8.427H44.4V6h2.667ZM44.4,9.627h2.667V19.686H44.4Z"/>
    <path class="cls-2" d="M53.6,13.568a4.15,4.15,0,0,0,1.051-.231.791.791,0,0,0,.568-.748.883.883,0,0,0-.435-.854,2.745,2.745,0,0,0-1.277-.235,1.68,1.68,0,0,0-1.338.461,1.905,1.905,0,0,0-.374.923H49.259A3.85,3.85,0,0,1,50,10.716a4.322,4.322,0,0,1,3.6-1.329,6.409,6.409,0,0,1,2.947.655,2.512,2.512,0,0,1,1.289,2.473V17.13q0,.48.018,1.163a1.462,1.462,0,0,0,.157.7.943.943,0,0,0,.388.3v.388H55.535a2.93,2.93,0,0,1-.166-.572q-.046-.268-.074-.609a5.413,5.413,0,0,1-1.263,1.006A3.811,3.811,0,0,1,52.1,20a3.334,3.334,0,0,1-2.27-.78,2.774,2.774,0,0,1-.9-2.21,2.863,2.863,0,0,1,1.441-2.686,6.427,6.427,0,0,1,2.324-.646Zm1.609,1.227a2.921,2.921,0,0,1-.511.254,4.269,4.269,0,0,1-.706.18l-.6.111a3.933,3.933,0,0,0-1.209.36,1.2,1.2,0,0,0-.621,1.117,1.165,1.165,0,0,0,.38.974,1.439,1.439,0,0,0,.923.3,2.75,2.75,0,0,0,1.589-.5,2.113,2.113,0,0,0,.754-1.818Z"/>
    <path class="cls-2" d="M65.719,9.392q.051,0,.226.014V12.1q-.249-.028-.443-.037t-.314-.009a2.181,2.181,0,0,0-2.132,1.034,4.021,4.021,0,0,0-.3,1.79v4.808H60.1V9.627h2.51V11.38a5.561,5.561,0,0,1,1.061-1.375,2.889,2.889,0,0,1,1.92-.618Q65.668,9.387,65.719,9.392Z"/>
  </g>
</svg>
