<svg xmlns="http://www.w3.org/2000/svg" viewBox="0 0 27.17 23.07"><defs><style>.cls-1{fill:#2f343a;}</style></defs><g id="Capa_2" data-name="Capa 2"><g id="Layer_1" data-name="Layer 1"><path class="cls-1" d="M22.35,17.6H19.88a.54.54,0,0,1,0-1.07h2.47a3.75,3.75,0,1,0,0-7.49h-1l.25-.71a5.49,5.49,0,0,0-10.2-4l-.3.67-.54-.49A3.49,3.49,0,0,0,4.79,7.1,3.47,3.47,0,0,0,5,8.33L5.26,9l-.71.05a3.74,3.74,0,0,0,.26,7.48h3a.54.54,0,1,1,0,1.07H4.81a4.81,4.81,0,0,1-1-9.52,4.55,4.55,0,0,1,7-4.79A6.55,6.55,0,0,1,23,6.55,6.29,6.29,0,0,1,22.85,8a4.82,4.82,0,0,1-.5,9.61Z"/><path class="cls-1" d="M9.55,18.76a.53.53,0,0,1-.38-.91l2.33-2.33a.54.54,0,0,1,.76.76L9.93,18.61A.55.55,0,0,1,9.55,18.76Z"/><path class="cls-1" d="M12.79,18.76a.53.53,0,0,1-.37-.15.54.54,0,0,1,0-.76l2.32-2.33a.56.56,0,0,1,.76,0,.54.54,0,0,1,0,.76l-2.33,2.33A.54.54,0,0,1,12.79,18.76Z"/><path class="cls-1" d="M16,18.76a.53.53,0,0,1-.37-.15.54.54,0,0,1,0-.76L18,15.52a.56.56,0,0,1,.76,0,.54.54,0,0,1,0,.76l-2.33,2.33A.54.54,0,0,1,16,18.76Z"/><path class="cls-1" d="M5.24,23.07a.55.55,0,0,1-.38-.15.54.54,0,0,1,0-.76l2.33-2.32a.53.53,0,0,1,.75.75L5.62,22.92A.55.55,0,0,1,5.24,23.07Z"/><path class="cls-1" d="M8.48,23.07a.53.53,0,0,1-.38-.91l2.33-2.32a.54.54,0,0,1,.76,0,.54.54,0,0,1,0,.75L8.86,22.92A.55.55,0,0,1,8.48,23.07Z"/><path class="cls-1" d="M11.72,23.07a.53.53,0,0,1-.38-.91l2.33-2.32a.54.54,0,0,1,.76,0,.54.54,0,0,1,0,.75L12.1,22.92A.55.55,0,0,1,11.72,23.07Z"/></g></g></svg>