<svg xmlns="http://www.w3.org/2000/svg" viewBox="0 0 76.46 64.94"><defs><style>.cls-1,.cls-2{fill:none;stroke-linecap:round;stroke-miterlimit:10;stroke-width:3px;}.cls-1{stroke:#fff;}.cls-2{stroke:#53a8dc;}</style></defs><g id="Capa_2" data-name="Capa 2"><g id="Layer_1" data-name="Layer 1"><path class="cls-1" d="M56,48h7a12,12,0,0,0,0-24.1h-.57A16.93,16.93,0,0,0,30.86,11.56,11.32,11.32,0,0,0,12,20a11.43,11.43,0,0,0,.73,4A12,12,0,0,0,13.55,48h8.3"/><line class="cls-2" x1="33.43" y1="44.75" x2="26.88" y2="51.3"/><line class="cls-2" x1="42.56" y1="44.75" x2="36" y2="51.3"/><line class="cls-2" x1="51.68" y1="44.75" x2="45.12" y2="51.3"/><line class="cls-2" x1="21.3" y1="56.89" x2="14.75" y2="63.44"/><line class="cls-2" x1="30.42" y1="56.89" x2="23.87" y2="63.44"/><line class="cls-2" x1="39.54" y1="56.89" x2="32.99" y2="63.44"/></g></g></svg>