<svg xmlns="http://www.w3.org/2000/svg" viewBox="0 0 25.04 25.04"><defs><style>.cls-1{fill:#f0af42;}</style></defs><g id="Capa_2" data-name="Capa 2"><g id="Layer_1" data-name="Layer 1"><path class="cls-1" d="M12.52,19.05a6.53,6.53,0,1,1,6.53-6.53A6.54,6.54,0,0,1,12.52,19.05ZM12.52,7a5.54,5.54,0,1,0,5.54,5.54A5.55,5.55,0,0,0,12.52,7Z"/><path class="cls-1" d="M12.52,4.39A.49.49,0,0,1,12,3.9V.49a.49.49,0,0,1,1,0V3.9A.49.49,0,0,1,12.52,4.39Z"/><path class="cls-1" d="M12.52,25a.49.49,0,0,1-.49-.49V21.14a.49.49,0,0,1,1,0v3.41A.49.49,0,0,1,12.52,25Z"/><path class="cls-1" d="M6.42,6.92a.46.46,0,0,1-.34-.15L3.67,4.36a.49.49,0,0,1,.69-.69L6.77,6.08a.5.5,0,0,1-.35.84Z"/><path class="cls-1" d="M21,21.52a.46.46,0,0,1-.34-.15L18.27,19a.49.49,0,0,1,.69-.69l2.41,2.41a.5.5,0,0,1-.35.84Z"/><path class="cls-1" d="M3.9,13H.49a.49.49,0,0,1,0-1H3.9a.49.49,0,0,1,0,1Z"/><path class="cls-1" d="M24.55,13H21.14a.49.49,0,1,1,0-1h3.41a.49.49,0,1,1,0,1Z"/><path class="cls-1" d="M4,21.52a.5.5,0,0,1-.35-.84l2.41-2.41a.48.48,0,0,1,.69,0,.47.47,0,0,1,0,.69L4.36,21.37A.46.46,0,0,1,4,21.52Z"/><path class="cls-1" d="M18.62,6.92a.5.5,0,0,1-.35-.84l2.41-2.41a.49.49,0,0,1,.69.69L19,6.77A.46.46,0,0,1,18.62,6.92Z"/></g></g></svg>