<svg xmlns="http://www.w3.org/2000/svg" viewBox="0 0 91.01 54.59"><defs><style>.cls-1,.cls-2{fill:none;stroke:#fff;stroke-miterlimit:10;stroke-width:3px;}.cls-2{stroke-linecap:round;}</style></defs><g id="Capa_2" data-name="Capa 2"><g id="Layer_1" data-name="Layer 1"><path class="cls-1" d="M75.34,32.32h-.49A14.59,14.59,0,0,0,47.71,21.65a9.77,9.77,0,0,0-16.29,7.27,9.6,9.6,0,0,0,.64,3.44,10.38,10.38,0,0,0,.73,20.73H75.34a10.39,10.39,0,1,0,0-20.77Z"/><path class="cls-2" d="M16.64,41.61H11.89a10.39,10.39,0,1,1,0-20.77h.49A14.59,14.59,0,0,1,39.52,10.17,9.76,9.76,0,0,1,52,9.69"/><circle class="cls-1" cx="85.23" cy="24.1" r="4.28"/></g></g></svg>