<svg xmlns="http://www.w3.org/2000/svg" viewBox="0 0 29.92 17.95"><defs><style>.cls-1{fill:#2f343a;}</style></defs><g id="Capa_2" data-name="Capa 2"><g id="Layer_1" data-name="Layer 1"><path class="cls-1" d="M24.77,18h-14a3.91,3.91,0,0,1-.87-7.72,3.51,3.51,0,0,1-.07-.72,3.7,3.7,0,0,1,5.67-3.14,5.29,5.29,0,0,1,9.85,2.7,5.76,5.76,0,0,1-.11,1.09A3.91,3.91,0,0,1,24.77,18ZM13.54,6.79a2.72,2.72,0,0,0-2.72,2.72,2.62,2.62,0,0,0,.18,1l.23.62-.66.05A2.92,2.92,0,0,0,10.78,17h14a2.92,2.92,0,1,0,0-5.84h-.85l.22-.66a4.15,4.15,0,0,0,.24-1.39,4.31,4.31,0,0,0-8.25-1.75l-.27.62-.51-.45A2.7,2.7,0,0,0,13.54,6.79Z"/><path class="cls-1" d="M5.47,14.17H3.91a3.9,3.9,0,0,1-.48-7.78,5.15,5.15,0,0,1-.12-1.1A5.29,5.29,0,0,1,13.16,2.6a3.7,3.7,0,0,1,2-.57,3.62,3.62,0,0,1,2.26.77.48.48,0,0,1,.09.69.5.5,0,0,1-.69.09,2.7,2.7,0,0,0-3.47.13l-.5.45-.28-.62A4.31,4.31,0,0,0,4.3,5.29a4.25,4.25,0,0,0,.24,1.4l.22.65H3.91a2.93,2.93,0,0,0,0,5.85H5.47a.49.49,0,0,1,0,1Z"/><path class="cls-1" d="M28,9.82a1.9,1.9,0,1,1,1.9-1.9A1.9,1.9,0,0,1,28,9.82ZM28,7a.92.92,0,1,0,.91.91A.92.92,0,0,0,28,7Z"/></g></g></svg>