<svg xmlns="http://www.w3.org/2000/svg" viewBox="0 0 26.53 26.01"><defs><style>.cls-1{fill:#fff;}</style></defs><g id="Capa_2" data-name="Capa 2"><g id="Layer_1" data-name="Layer 1"><path class="cls-1" d="M19.27,14.09a.51.51,0,0,1-.43-.23.49.49,0,0,1,.17-.68,4.11,4.11,0,1,0-6.27-3.51,4.41,4.41,0,0,0,0,.52.49.49,0,1,1-1,.13,4.73,4.73,0,0,1,0-.65A5.1,5.1,0,1,1,19.52,14,.47.47,0,0,1,19.27,14.09Z"/><path class="cls-1" d="M16.85,3.59a.49.49,0,0,1-.49-.5V.49a.5.5,0,0,1,1,0v2.6A.5.5,0,0,1,16.85,3.59Z"/><path class="cls-1" d="M12.2,5.51a.47.47,0,0,1-.35-.14L10,3.53a.49.49,0,1,1,.7-.7l1.84,1.84a.5.5,0,0,1,0,.7A.47.47,0,0,1,12.2,5.51Z"/><path class="cls-1" d="M23.35,16.66a.5.5,0,0,1-.35-.14l-1.84-1.84a.49.49,0,1,1,.7-.7l1.84,1.84a.5.5,0,0,1,0,.7A.54.54,0,0,1,23.35,16.66Z"/><path class="cls-1" d="M10.27,10.17H7.67a.5.5,0,0,1,0-1h2.6a.5.5,0,1,1,0,1Z"/><path class="cls-1" d="M26,10.17h-2.6a.5.5,0,1,1,0-1H26a.5.5,0,0,1,0,1Z"/><path class="cls-1" d="M21.51,5.51a.47.47,0,0,1-.35-.14.5.5,0,0,1,0-.7L23,2.83a.49.49,0,1,1,.7.7L21.86,5.37A.49.49,0,0,1,21.51,5.51Z"/><path class="cls-1" d="M18.06,26H3.94a3.94,3.94,0,0,1-.87-7.78A3.55,3.55,0,0,1,3,17.5a3.73,3.73,0,0,1,5.73-3.16,5.34,5.34,0,0,1,9.93,2.72,5.08,5.08,0,0,1-.12,1.1A3.94,3.94,0,0,1,18.06,26ZM6.73,14.75A2.75,2.75,0,0,0,4,17.5a2.64,2.64,0,0,0,.18,1l.23.62-.66.05A2.95,2.95,0,0,0,3.94,25H18.06a2.95,2.95,0,1,0,0-5.9H17.2l.23-.65a4.35,4.35,0,0,0-8.09-3.18l-.28.62-.5-.46A2.77,2.77,0,0,0,6.73,14.75Z"/></g></g></svg>