<svg xmlns="http://www.w3.org/2000/svg" viewBox="0 0 80.7 79.13"><defs><style>.cls-1,.cls-2{fill:none;stroke-miterlimit:10;stroke-width:3px;}.cls-1{stroke:#f0af42;stroke-linecap:round;}.cls-2{stroke:#fff;}</style></defs><g id="Capa_2" data-name="Capa 2"><g id="Layer_1" data-name="Layer 1"><path class="cls-1" d="M37.37,31.2a14.76,14.76,0,0,1-.11-1.77A14,14,0,1,1,58.6,41.37"/><line class="cls-1" x1="51.27" y1="1.5" x2="51.27" y2="9.41"/><line class="cls-1" x1="31.52" y1="9.68" x2="37.11" y2="15.27"/><line class="cls-1" x1="65.43" y1="43.59" x2="71.02" y2="49.18"/><line class="cls-1" x1="23.34" y1="29.43" x2="31.25" y2="29.43"/><line class="cls-1" x1="71.29" y1="29.43" x2="79.2" y2="29.43"/><line class="cls-1" x1="65.43" y1="15.27" x2="71.02" y2="9.68"/><path class="cls-2" d="M54.93,56.66h-.49A14.73,14.73,0,0,0,27,45.9,9.84,9.84,0,0,0,11.25,56.7,10.48,10.48,0,0,0,12,77.63h43a10.49,10.49,0,0,0,0-21Z"/></g></g></svg>